<svg xmlns="http://www.w3.org/2000/svg" width="200" height="400" viewBox="0 0 200 400" id="verticalSpeedIndicator">
  <!-- Background of the indicator -->
  <rect x="0" y="0" width="200" height="400" fill="#333" rx="15" ry="15" />
  <rect x="5" y="5" width="190" height="390" fill="none" stroke="#999" stroke-width="2" rx="10" ry="10" />

  <!-- Scale line for vertical speed -->
  <line x1="100" y1="50" x2="100" y2="350" stroke="#ccc" stroke-width="2" />

  <!-- Positive speed labels -->
  <text x="110" y="60" fill="#eee" font-family="Arial" font-size="14">+5</text>
  <text x="110" y="120" fill="#eee" font-family="Arial" font-size="14">+4</text>
  <text x="110" y="180" fill="#eee" font-family="Arial" font-size="14">+3</text>
  <text x="110" y="240" fill="#eee" font-family="Arial" font-size="14">+2</text>
  <text x="110" y="300" fill="#eee" font-family="Arial" font-size="14">+1</text>

  <!-- Zero speed label -->
  <text x="110" y="360" fill="#eee" font-family="Arial" font-size="14">0</text>

  <!-- Negative speed labels -->
  <text x="110" y="420" fill="#eee" font-family="Arial" font-size="14">-1</text>
  <text x="110" y="480" fill="#eee" font-family="Arial" font-size="14">-2</text>
  <text x="110" y="540" fill="#eee" font-family="Arial" font-size="14">-3</text>
  <text x="110" y="600" fill="#eee" font-family="Arial" font-size="14">-4</text>
  <text x="110" y="660" fill="#eee" font-family="Arial" font-size="14">-5</text>

  <!-- Tick marks for the scale -->
  <line x1="90" y1="60" x2="110" y2="60" stroke="#eee" stroke-width="2" />
  <line x1="90" y1="120" x2="110" y2="120" stroke="#eee" stroke-width="2" />
  <line x1="90" y1="180" x2="110" y2="180" stroke="#eee" stroke-width="2" />
  <line x1="90" y1="240" x2="110" y2="240" stroke="#eee" stroke-width="2" />
  <line x1="90" y1="300" x2="110" y2="300" stroke="#eee" stroke-width="2" />
  <line x1="90" y1="360" x2="110" y2="360" stroke="#eee" stroke-width="2" />
  <line x1="90" y1="420" x2="110" y2="420" stroke="#eee" stroke-width="2" />
  <line x1="90" y1="480" x2="110" y2="480" stroke="#eee" stroke-width="2" />
  <line x1="90" y1="540" x2="110" y2="540" stroke="#eee" stroke-width="2" />
  <line x1="90" y1="600" x2="110" y2="600" stroke="#eee" stroke-width="2" />
  <line x1="90" y1="660" x2="110" y2="660" stroke="#eee" stroke-width="2" />

  <!-- Bottom text label -->
  <text x="50" y="700" fill="#eee" font-family="Arial" font-size="16">VERT SPEED</text>
</svg>
