<svg version="1.1" id="Layer_1" xmlns="http://www.w3.org/2000/svg" xmlns:xlink="http://www.w3.org/1999/xlink" viewBox="0 0 512 512" xml:space="preserve" fill="#000000"><g id="SVGRepo_bgCarrier" stroke-width="0"></g><g id="SVGRepo_tracerCarrier" stroke-linecap="round" stroke-linejoin="round"></g><g id="SVGRepo_iconCarrier"> <path style="fill:#434A54;" d="M37.828,10.375C33,7,26.344,8.188,22.984,13.031c-3.375,4.828-2.172,11.484,2.641,14.844 l92.219,64.266l12.188-17.5L37.828,10.375z"></path> <g> <path style="fill:#dba329;" d="M456.25,442.219l28.625,63.531l19.453-8.766l-76.266-169.188c-1.109-2.344-3.094-4.266-5.484-5.297 l-69.062-29.141l-8.297,19.656l55,23.203l-47.25,67.234l-7.922-1.312l-3.484,21.047L456.25,442.219z M445.703,418.844 l-69.391-11.516l39.125-55.641L445.703,418.844z"></path> <path style="fill:#dba329;" d="M170.469,423.188l-3.5-21.047l-7.906,1.312l-47.281-67.234l55-23.203l-8.281-19.656L89.438,322.5 c-2.406,1.031-4.375,2.953-5.484,5.297L7.688,496.984l19.453,8.766l28.641-63.531L170.469,423.188z M96.594,351.688l39.109,55.641 l-69.391,11.516L96.594,351.688z"></path> </g> <rect x="149.34" y="298.67" style="fill:#7494c8;" width="213.33" height="128"></rect> <polygon style="fill:#4bdefb;" points="149.344,320 64,149.219 160,0 352,0 448,149.219 362.672,320 "></polygon> <path id="SVGCleanerId_0" style="fill:#4a5d78;" d="M362.672,160c0,58.922-47.766,106.672-106.672,106.672 S149.344,218.922,149.344,160c0-58.906,47.75-106.656,106.656-106.656S362.672,101.094,362.672,160z"></path> <g> <path id="SVGCleanerId_0_1_" style="fill:#4a5d78;" d="M362.672,160c0,58.922-47.766,106.672-106.672,106.672 S149.344,218.922,149.344,160c0-58.906,47.75-106.656,106.656-106.656S362.672,101.094,362.672,160z"></path> </g> <g> <path style="fill:#7494c8;" d="M149.344,160c0,19.438,5.188,37.641,14.281,53.344h51.5v-64h-65.25 C149.531,152.844,149.344,156.406,149.344,160z"></path> <rect x="289.56" y="149.34" style="fill:#7494c8;" width="55.31" height="21.328"></rect> </g> <rect x="213.34" y="170.67" width="85.33" height="21.328"></rect> <path style="fill:#dba329;" d="M256,330.672c-5.875,0-10.656,4.781-10.656,10.672v166.594h21.328V341.344 C266.672,335.453,261.906,330.672,256,330.672z"></path> <g> <path style="fill:#434A54;" d="M32,490.672H10.672C4.781,490.672,0,495.453,0,501.344S4.781,512,10.672,512H32 c5.906,0,10.672-4.766,10.672-10.656S37.906,490.672,32,490.672z"></path> <path style="fill:#434A54;" d="M266.672,490.609h-21.328c-5.891,0-10.672,4.781-10.672,10.672s4.781,10.656,10.672,10.656h21.328 c5.891,0,10.672-4.766,10.672-10.656S272.562,490.609,266.672,490.609z"></path> <path style="fill:#434A54;" d="M501.344,490.672H480c-5.875,0-10.656,4.781-10.656,10.672S474.125,512,480,512h21.344 c5.891,0,10.656-4.766,10.656-10.656S507.234,490.672,501.344,490.672z"></path> </g> <path style="fill:#7494c8;" d="M298.672,257.781c37.672-16.453,64-54.031,64-97.781c0-3.594-0.172-7.156-0.516-10.656h-63.484 V257.781z"></path> <path style="fill:#dba329;" d="M213.344,257.781c13.062,5.719,27.5,8.891,42.656,8.891c15.188,0,29.609-3.172,42.672-8.891v-87.109 h-85.328V257.781z"></path> <path style="fill:#b57ec9;" d="M213.344,170.672h85.328v0.016l0.203-0.016l-9.312-111.953C279,55.234,267.719,53.344,256,53.344 c-11.625,0-22.844,1.859-33.312,5.312L213.344,170.672L213.344,170.672L213.344,170.672z"></path> </g></svg>
