<svg version="1.1" id="Layer_1" xmlns="http://www.w3.org/2000/svg" xmlns:xlink="http://www.w3.org/1999/xlink" viewBox="0 0 512 512" xml:space="preserve" fill="#000000"><g id="SVGRepo_bgCarrier" stroke-width="0"></g><g id="SVGRepo_tracerCarrier" stroke-linecap="round" stroke-linejoin="round"></g><g id="SVGRepo_iconCarrier"> <g transform="translate(1 1)"> <g> <polygon style="fill:#a5b1ee;" points="16.356,107.475 51.068,107.475 51.068,72.763 16.356,72.763 "></polygon> <path style="fill:#a5b1ee;" d="M34.58,176.898c23.431,23.431,62.481,23.431,85.912,0s23.431-62.481,0-85.912L34.58,176.898z"></path> <polygon style="fill:#a5b1ee;" points="137.847,333.102 181.237,333.102 181.237,289.712 137.847,289.712 "></polygon> <path style="fill:#a5b1ee;" d="M215.949,333.102h-34.712v-60.746c0-4.339,3.471-8.678,8.678-8.678h17.356 c4.339,0,8.678,3.471,8.678,8.678V333.102z"></path> <path style="fill:#a5b1ee;" d="M450.254,315.746h-34.712v-52.068c0-9.546,7.81-17.356,17.356-17.356s17.356,7.81,17.356,17.356 V315.746z"></path> <path style="fill:#a5b1ee;" d="M389.508,211.61c0-9.546-7.81-17.356-17.356-17.356c-9.546,0-17.356,7.81-17.356,17.356v26.034 l-27.77,60.746h-59.01c-9.546,0-17.356,7.81-17.356,17.356c0,9.546,7.81,17.356,17.356,17.356h43.39h26.034h17.356l34.712-86.78 v-8.678V211.61z"></path> </g> <path style="fill:#FFDD09;" d="M110.946,333.102c9.546,8.678,15.62,20.827,17.356,34.712h253.397 c1.736-13.885,8.678-26.034,17.356-34.712H110.946z"></path> <g> <path style="fill:#a5b1ee;" d="M380.831,376.492c0-2.603,0-6.075,0.868-8.678h-61.614v6.942c0,15.62,12.149,27.77,27.77,27.77 h39.051C382.566,394.715,380.831,386.037,380.831,376.492"></path> <path style="fill:#a5b1ee;" d="M128.302,367.814c0,2.603,0.868,6.075,0.868,8.678c0,9.546-1.736,18.224-6.075,26.034h65.085 c15.62,0,27.77-12.149,27.77-27.77v-6.942H128.302z"></path> </g> <g> <path style="fill:#FFDD09;" d="M129.169,376.492c0,33.844-26.902,60.746-60.746,60.746S7.678,410.336,7.678,376.492 s26.902-60.746,60.746-60.746S129.169,342.647,129.169,376.492"></path> <path style="fill:#FFDD09;" d="M502.322,376.492c0,33.844-26.902,60.746-60.746,60.746s-60.746-26.902-60.746-60.746 s26.902-60.746,60.746-60.746S502.322,342.647,502.322,376.492"></path> </g> <g> <path style="fill:#a5b1ee;" d="M94.458,376.492c0,14.753-11.281,26.034-26.034,26.034S42.39,391.244,42.39,376.492 c0-14.753,11.281-26.034,26.034-26.034S94.458,361.739,94.458,376.492"></path> <path style="fill:#a5b1ee;" d="M467.61,376.492c0,14.753-11.281,26.034-26.034,26.034c-14.753,0-26.034-11.281-26.034-26.034 c0-14.753,11.281-26.034,26.034-26.034C456.329,350.458,467.61,361.739,467.61,376.492"></path> </g> <path d="M68.424,445.915C30.241,445.915-1,414.675-1,376.492s31.241-69.424,69.424-69.424s69.424,31.241,69.424,69.424 S106.607,445.915,68.424,445.915z M68.424,324.424c-28.637,0-52.068,23.431-52.068,52.068c0,28.637,23.431,52.068,52.068,52.068 s52.068-23.431,52.068-52.068C120.492,347.854,97.061,324.424,68.424,324.424z"></path> <path d="M441.576,445.915c-38.183,0-69.424-31.241-69.424-69.424s31.241-69.424,69.424-69.424S511,338.308,511,376.492 S479.759,445.915,441.576,445.915z M441.576,324.424c-28.637,0-52.068,23.431-52.068,52.068c0,28.637,23.431,52.068,52.068,52.068 c28.637,0,52.068-23.431,52.068-52.068C493.644,347.854,470.214,324.424,441.576,324.424z"></path> <path d="M388.641,376.492H121.359l-0.868-7.81c-1.736-11.281-6.942-21.695-14.753-29.505l-16.488-14.753h330.63l-15.62,14.753 c-7.81,7.81-13.017,18.224-14.753,29.505L388.641,376.492z M135.244,359.136h238.644c1.736-6.075,4.339-12.149,6.942-17.356 H128.302C131.773,346.986,134.376,353.061,135.244,359.136z"></path> <path d="M458.932,324.424h-52.068v-60.746c0-14.753,11.281-26.034,26.034-26.034c14.753,0,26.034,11.281,26.034,26.034V324.424z M424.22,307.068h17.356v-43.39c0-5.207-3.471-8.678-8.678-8.678c-5.207,0-8.678,3.471-8.678,8.678V307.068z"></path> <path d="M502.322,315.746h-17.356c0-19.092-15.62-34.712-34.712-34.712v-17.356C478.892,263.678,502.322,287.108,502.322,315.746z"></path> <rect x="484.966" y="315.746" width="17.356" height="26.034"></rect> <path d="M146.525,333.102h-17.356V202.932c0-6.075-8.678-14.753-13.885-19.092l10.414-13.885 c1.736,1.736,20.827,16.488,20.827,32.976V333.102z"></path> <path d="M207.271,263.678h-17.356v-26.034c0-16.488,18.224-31.241,20.827-32.976l10.414,13.885 c-5.207,4.339-13.885,13.017-13.885,19.092V263.678z"></path> <path d="M77.969,203.8c-18.224,0-35.58-6.942-49.464-19.959l-6.075-6.942l98.061-98.061l6.075,6.075 c26.902,26.902,26.902,71.159,0,98.061C113.549,195.99,96.193,203.8,77.969,203.8z M47.597,176.031 c8.678,6.075,19.092,9.546,30.373,9.546c13.885,0,26.902-5.207,36.447-15.62c18.224-18.224,19.959-46.861,5.207-66.82 L47.597,176.031z"></path> <path d="M51.068,116.153H16.356l-8.678-8.678V72.763l8.678-8.678h34.712l8.678,8.678v34.712L51.068,116.153z M25.034,98.797H42.39 V81.441H25.034V98.797z"></path> <rect x="55.409" y="102.267" transform="matrix(-0.7071 0.7071 -0.7071 -0.7071 194.6022 160.3744)" width="17.356" height="36.447"></rect> <path d="M189.915,341.78h-60.746v-60.746h60.746V341.78z M146.525,324.424h26.034V298.39h-26.034V324.424z"></path> <path d="M224.627,341.78h-52.068v-69.424c0-9.546,7.81-17.356,17.356-17.356h17.356c9.546,0,17.356,7.81,17.356,17.356V341.78z M189.915,324.424h17.356v-52.068h-17.356V324.424z"></path> <path d="M233.305,237.644c-2.603,0-5.207-0.868-6.942-3.471l-26.034-34.712c-2.603-3.471-1.736-9.546,1.736-12.149 c3.471-2.603,9.546-1.736,12.149,1.736l26.034,34.712c2.603,3.471,1.736,9.546-1.736,12.149 C236.776,236.776,235.041,237.644,233.305,237.644z"></path> <path d="M354.797,341.78h-86.78c-14.753,0-26.034-11.281-26.034-26.034c0-14.753,11.281-26.034,26.034-26.034h53.803l24.298-53.803 V211.61c0-14.753,11.281-26.034,26.034-26.034c14.753,0,26.034,11.281,26.034,26.034v34.712c0,0.868,0,2.603-0.868,3.471 l-34.712,86.78C361.739,340.044,358.268,341.78,354.797,341.78z M268.017,307.068c-5.207,0-8.678,3.471-8.678,8.678 s3.471,8.678,8.678,8.678h80.705l32.108-79.837V211.61c0-5.207-3.471-8.678-8.678-8.678c-5.207,0-8.678,3.471-8.678,8.678v26.034 c0,0.868,0,2.603-0.868,3.471l-27.77,60.746c-1.736,3.471-4.339,5.207-7.81,5.207H268.017z M389.508,246.322L389.508,246.322 L389.508,246.322z"></path> <path d="M68.424,411.203c-19.092,0-34.712-15.62-34.712-34.712c0-19.092,15.62-34.712,34.712-34.712s34.712,15.62,34.712,34.712 C103.136,395.583,87.515,411.203,68.424,411.203z M68.424,359.136c-9.546,0-17.356,7.81-17.356,17.356s7.81,17.356,17.356,17.356 s17.356-7.81,17.356-17.356S77.969,359.136,68.424,359.136z"></path> <path d="M441.576,411.203c-19.092,0-34.712-15.62-34.712-34.712c0-19.092,15.62-34.712,34.712-34.712 c19.092,0,34.712,15.62,34.712,34.712C476.288,395.583,460.668,411.203,441.576,411.203z M441.576,359.136 c-9.546,0-17.356,7.81-17.356,17.356s7.81,17.356,17.356,17.356s17.356-7.81,17.356-17.356S451.122,359.136,441.576,359.136z"></path> <path d="M400.79,411.203h-52.936c-19.959,0-36.447-16.488-36.447-36.447v-15.62h79.837l-1.736,9.546 c0,2.603-0.868,5.207-0.868,7.81c0,7.81,1.736,15.62,5.207,22.563L400.79,411.203z M328.763,376.492 c0.868,9.546,8.678,17.356,19.092,17.356h26.902c-1.736-6.075-2.603-11.281-2.603-17.356H328.763z"></path> <path d="M188.18,411.203H109.21l6.075-12.149c3.471-6.942,5.207-14.753,5.207-22.563c0-2.603,0-4.339-0.868-7.81l-0.868-9.546 h105.871v15.62C224.627,394.715,208.139,411.203,188.18,411.203z M135.244,393.847h52.936c9.546,0,18.224-7.81,19.092-17.356 h-69.424C137.847,382.566,136.98,387.773,135.244,393.847z"></path> </g> </g></svg>
